<?xml version="1.0" encoding="UTF-8"?>
<svg version="1.1" xmlns="http://www.w3.org/2000/svg" width="500" height="500">
<path d="M0 0 C0.8161377 0.18820313 1.63227539 0.37640625 2.47314453 0.5703125 C12.02616571 2.83809201 20.72725439 5.5240901 29 11 C29.90105469 11.56460938 29.90105469 11.56460938 30.8203125 12.140625 C38.31245954 17.48678018 40.53730291 27.00782059 42.01367188 35.56811523 C42.19478516 36.70063721 42.37589844 37.83315918 42.5625 39 C42.97857477 41.38704965 43.39655024 43.77376877 43.81640625 46.16015625 C44.01637207 47.32047363 44.21633789 48.48079102 44.42236328 49.67626953 C45.22188468 54.27672781 46.06675431 58.86233167 47 63.4375 C47.19444702 64.51741211 47.19444702 64.51741211 47.39282227 65.61914062 C48.09138076 68.95141502 48.84632128 70.83955725 51.21875 73.31640625 C54.24640495 75.14915806 57.15660977 76.3438744 60.5 77.5 C69.08886604 80.46998171 73.79616083 85.06844709 78 93 C79.68061291 97.25792869 80.88931911 101.56221282 82 106 C82.45052734 107.78470703 82.45052734 107.78470703 82.91015625 109.60546875 C85.66560811 121.76790511 87.81036215 135.81011293 81 147 C74.53816891 156.24287232 66.72403752 160.12110151 56.10351562 163.21362305 C51.81454205 164.5026616 51.81454205 164.5026616 49 168 C48.61575553 170.07651972 48.3311116 172.17197302 48.09997559 174.27105713 C48.02734025 174.91220506 47.95470491 175.55335299 47.87986851 176.21392965 C47.63744869 178.37648215 47.40743605 180.54016366 47.17773438 182.70410156 C47.0060014 184.26776222 46.83379545 185.83137099 46.6611557 187.39493179 C44.58844359 206.31927474 42.70526052 225.26446884 40.81022644 244.20723724 C40.14100931 250.89357866 39.46592893 257.57932089 38.78967285 264.26495361 C38.67435825 265.40523537 38.55904365 266.54551713 38.44023466 267.72035289 C38.20500026 270.04638276 37.96975464 272.3724115 37.73449802 274.69843912 C36.16691615 290.20006923 34.60331172 305.70207877 33.05419922 321.20556641 C31.99974132 331.75810616 30.93653234 342.30972455 29.8633647 352.8603785 C29.29897802 358.41251355 28.73895256 363.9650075 28.18977356 369.51866913 C27.67498765 374.72400857 27.14863209 379.92805202 26.61368752 385.13135719 C26.42078017 387.02747109 26.23199299 388.92400994 26.04787254 390.82099724 C23.96000355 412.27794037 20.06068571 431.49816866 2.5859375 446.00390625 C-18.66747918 461.62348073 -44.69606637 461.37057606 -69.9375 461.25 C-71.06596344 461.24723053 -72.19442688 461.24446106 -73.35708618 461.24160767 C-89.62053649 461.194704 -105.84640146 461.09896368 -122 459 C-122.78681152 458.89816406 -123.57362305 458.79632813 -124.38427734 458.69140625 C-140.64341321 456.43869724 -156.61655931 450.29586917 -167 437 C-175.35736556 423.21363714 -176.52362452 409.31971894 -178.13891602 393.58813477 C-178.34407863 391.62419484 -178.54965619 389.66029822 -178.75561523 387.69644165 C-179.31145908 382.38491822 -179.86146682 377.07280513 -180.41036725 371.76056027 C-180.98713775 366.18800481 -181.56918359 360.61600031 -182.15061951 355.04393005 C-183.12622003 345.68740349 -184.09838994 336.33052591 -185.06811523 326.97338867 C-186.4332975 313.80043994 -187.8046951 300.62814377 -189.17733109 287.45596993 C-190.24572462 277.20124046 -191.31246868 266.94633929 -192.37890625 256.69140625 C-192.49277341 255.59658471 -192.60664057 254.50176318 -192.72395825 253.37376523 C-193.37996468 247.06525813 -194.03512319 240.75666397 -194.68904877 234.44794083 C-194.88673592 232.54164758 -195.08465409 230.63537828 -195.28282738 228.72913551 C-199.26622967 190.40423356 -199.26622967 190.40423356 -196.765625 185.65625 C-193.29628593 181.4655632 -190.78426387 180.17842639 -185.25 179.625 C-181.12047966 179.67833329 -178.72430659 181.01591494 -175.4453125 183.41796875 C-171.88951755 187.31012269 -171.54412622 192.34684627 -171.04541016 197.38745117 C-170.92720366 198.49265862 -170.92720366 198.49265862 -170.80660915 199.62019348 C-170.5438333 202.09377573 -170.29149245 204.56831089 -170.0390625 207.04296875 C-169.85117216 208.83220454 -169.66263183 210.62137218 -169.47349548 212.41047668 C-169.06486533 216.28909184 -168.66085291 220.16815149 -168.26028442 224.04760742 C-167.62015918 230.24546802 -166.96882162 236.44212054 -166.31616211 242.63867188 C-164.18927431 262.86064335 -162.09364258 283.0858614 -160.00020218 303.3113184 C-158.92227434 313.72254447 -157.83934375 324.13324475 -156.75378036 334.54367733 C-155.96303029 342.13220925 -155.17980713 349.72147026 -154.40226269 357.31136608 C-153.91194105 362.08263074 -153.41527831 366.85322075 -152.91702461 371.62366295 C-152.68700485 373.83867599 -152.45960386 376.05396287 -152.23509026 378.26954079 C-150.6620804 404.17857976 -150.6620804 404.17857976 -138.25 425.875 C-128.52652474 433.61372094 -116.96736326 435.21640156 -104.875 435.625 C-103.38250732 435.67865723 -103.38250732 435.67865723 -101.85986328 435.73339844 C-53.71900509 439.62664045 -53.71900509 439.62664045 -10.375 423.875 C-5.53446148 418.01540073 -3.93849356 411.64294016 -2.9934082 404.18920898 C-2.8690752 403.21169379 -2.8690752 403.21169379 -2.74223042 402.21443081 C-1.88890266 395.36903295 -1.18921174 388.50780729 -0.5175457 381.64261627 C-0.28152562 379.23071848 -0.04218672 376.81916612 0.19773865 374.40765381 C0.73907091 368.95957172 1.27599341 363.51105911 1.8125 358.0625 C2.60307405 350.03622047 3.39571911 342.01014935 4.19140625 333.984375 C4.29741024 332.91425989 4.40341423 331.84414478 4.51263046 330.74160194 C6.24277306 313.3036833 8.05249091 295.87488245 9.89218849 278.44827276 C10.43402312 273.31323645 10.97245724 268.17785245 11.50862122 263.04222107 C11.58427663 262.31763803 11.65993205 261.59305498 11.73788005 260.84651488 C12.04305905 257.92285214 12.34810477 254.99917563 12.65273392 252.07545555 C13.56029358 243.36531329 14.47876571 234.65649044 15.41505605 225.94938815 C16.07862711 219.76804798 16.72293541 213.58483254 17.36055183 207.40076447 C17.62836176 204.83472734 17.90263011 202.26935519 18.1836834 199.7047348 C18.56945072 196.17684002 18.93245165 192.64730108 19.29003906 189.11645508 C19.40826428 188.08593049 19.52648951 187.0554059 19.64829731 185.9936533 C20.22145897 180.05053553 20.03577404 176.21498608 17 171 C9.34803215 167.17401608 -3.88202924 170.51270254 -12.31114197 171.26124191 C-31.74184979 172.9550267 -51.05550508 173.47275969 -70.55224609 173.39111328 C-74.67538152 173.37402299 -78.79793526 173.38422949 -82.92105103 173.40143299 C-113.38955213 173.5088867 -143.81497581 171.86549731 -174 167.5625 C-175.57254901 167.34539774 -177.14514127 167.12860848 -178.71777344 166.91210938 C-182.47127245 166.39025034 -186.22175835 165.85007383 -189.97094727 165.29815674 C-191.88827918 165.01641668 -193.80642246 164.74021428 -195.72460938 164.46435547 C-198.90392265 163.99945589 -202.07732917 163.50804033 -205.25 163 C-206.11753906 162.87052979 -206.98507813 162.74105957 -207.87890625 162.60766602 C-217.39389066 160.97536058 -226.08884607 156.80633305 -232 149 C-239.54593337 136.47571059 -238.79611411 124.8587759 -235.75 110.9375 C-235.54503906 109.92623047 -235.34007812 108.91496094 -235.12890625 107.87304688 C-232.74760674 96.66650707 -229.58697744 86.15196779 -219.6875 79.4296875 C-206.63949227 71.91849884 -192.14370964 74.94083152 -177.97338867 77.36157227 C-170.20925151 78.67783118 -162.45175136 79.75484839 -154.625 80.625 C-153.66102295 80.73561768 -152.6970459 80.84623535 -151.70385742 80.96020508 C-148.88188107 81.265498 -146.05877264 81.54234877 -143.23187256 81.79788208 C-141.6148455 81.94431972 -139.99823361 82.09536573 -138.38189697 82.24923706 C-119.13308787 84.04353509 -99.98593358 84.34450779 -80.67041016 84.31567383 C-77.32456943 84.31106479 -73.97909427 84.31790265 -70.63330078 84.33618164 C-43.45043253 84.48309117 -16.62867019 83.04802063 10.38037109 79.9621582 C11.10021494 79.88140391 11.82005878 79.80064962 12.56171608 79.71744823 C15.52224887 79.36880691 18.16211775 78.94596075 21 78 C21.1379592 72.54324133 20.73579082 67.76206601 19.57421875 62.39453125 C19.42596146 61.70743576 19.27770416 61.02034027 19.12495422 60.31242371 C18.81211618 58.87380232 18.49510913 57.43608158 18.17407227 55.99926758 C17.68696244 53.8100841 17.21870335 51.61743167 16.75195312 49.42382812 C16.44382993 48.01798288 16.13462237 46.61237476 15.82421875 45.20703125 C15.54666748 43.9435083 15.26911621 42.67998535 14.9831543 41.37817383 C13.51775176 36.34296773 11.5758586 32.6940468 7 30 C-34.49481747 15.50712218 -86.77295233 18.21194285 -129.75 22.375 C-130.96163818 22.48884033 -132.17327637 22.60268066 -133.42163086 22.7199707 C-141.7842198 23.57897987 -149.81698621 25.08605453 -158 27 C-158 27.66 -158 28.32 -158 29 C-114.95889968 38.86921976 -66.1388012 37.99830241 -22.48852539 32.28564453 C-16.58261107 31.60773619 -12.13357554 31.57761631 -7 35 C-4.13014641 38.2474659 -2.74873607 40.77097319 -2.5625 45.0625 C-3.13023863 50.17214765 -4.45825097 52.46706096 -8.05078125 56.0390625 C-11.9752507 58.64844484 -15.38041966 59.07231586 -20 59.625 C-20.9187793 59.74270752 -21.83755859 59.86041504 -22.78417969 59.98168945 C-74.29822753 66.23550509 -149.33457865 72.5069515 -195 44 C-199.98918059 39.80632134 -202.70133723 35.16582534 -203.3125 28.6875 C-202.74572637 21.99957117 -201.08755539 17.65789375 -196.25 12.875 C-190.2226637 7.9009846 -183.31526277 5.41972138 -176 3 C-174.37578125 2.44699219 -174.37578125 2.44699219 -172.71875 1.8828125 C-121.08826842 -13.67871115 -52.45717249 -12.20883998 0 0 Z M-207 104 C-211.67436875 111.27124027 -212.93763311 120.50176971 -212 129 C-210.66971857 132.47351261 -209.64427066 133.60672033 -206.48510742 135.53515625 C-202.11954702 137.3700678 -198.04040793 137.93913181 -193.36328125 138.5 C-192.42289505 138.62095535 -191.48250885 138.74191071 -190.5136261 138.86653137 C-187.44796998 139.25651443 -184.38052563 139.62915448 -181.3125 140 C-179.18862792 140.26382426 -177.06476733 140.52774101 -174.94091797 140.79174805 C-156.99743236 142.99274538 -139.03427075 144.74498148 -121 146 C-119.10809937 146.14139404 -119.10809937 146.14139404 -117.17797852 146.28564453 C-104.02776713 147.2120792 -90.86525729 147.24242933 -77.6875 147.25 C-75.85126572 147.25151062 -75.85126572 147.25151062 -73.97793579 147.25305176 C-38.77779038 147.23363398 -3.88692362 144.60933756 31 140 C32.54349121 139.79890625 32.54349121 139.79890625 34.11816406 139.59375 C42.2031089 138.50935642 49.09269765 137.55950008 56 133 C59.63964879 127.54052681 59.28995788 121.65300109 58.3125 115.3125 C57.06294501 109.28424148 55.24793372 105.49862248 50 102 C45.10303074 100.73195115 40.80661781 101.25686961 35.90234375 102.109375 C34.29533606 102.37081304 32.68832078 102.63220434 31.08129883 102.89355469 C30.24289459 103.03353882 29.40449036 103.17352295 28.54067993 103.31774902 C24.11745116 104.05221418 19.68797651 104.74627983 15.2578125 105.4375 C14.37291641 105.57557068 13.48802032 105.71364136 12.5763092 105.855896 C-51.84146157 115.79581878 -121.57033759 115.7382223 -185.5300293 102.57495117 C-196.81603188 99.92183468 -196.81603188 99.92183468 -207 104 Z " fill="#24231F" transform="translate(328,23)"/>
<path d="M0 0 C0.31682596 11.63273257 -0.67518823 23.00000283 -1.8125 34.5625 C-1.9803937 36.32481501 -2.14771306 38.08718484 -2.31445312 39.84960938 C-3.05493411 47.61533118 -3.82468376 55.37761707 -4.64575195 63.13525391 C-6.27678859 78.56467872 -7.76691266 94.00336811 -9.19140625 109.453125 C-9.28741182 110.49406752 -9.3834174 111.53501003 -9.48233223 112.60749626 C-10.27947852 121.25726263 -11.07310311 129.90735155 -11.86547852 138.55755615 C-12.4608372 145.0567686 -13.05791899 151.55581792 -13.65742302 158.05464935 C-13.93268227 161.04582371 -14.20547221 164.03721622 -14.47816467 167.02862549 C-14.96655749 172.35431828 -15.47324034 177.67796542 -16 183 C-16.08120464 183.82446121 -16.16240929 184.64892242 -16.24607468 185.49836731 C-16.48150121 187.83709059 -16.73011449 190.17397284 -16.98413086 192.51074219 C-17.05221482 193.19008945 -17.12029879 193.86943672 -17.1904459 194.56937027 C-17.86049339 200.46978715 -19.74011204 205.08626858 -23 210 C-23.70125 211.093125 -24.4025 212.18625 -25.125 213.3125 C-31.64941757 219.41141208 -40.11022304 221.92681075 -48.89453125 222.31640625 C-49.83731934 222.35846191 -50.78010742 222.40051758 -51.75146484 222.44384766 C-52.76160645 222.48300293 -53.77174805 222.5221582 -54.8125 222.5625 C-55.8742041 222.6042334 -56.9359082 222.6459668 -58.02978516 222.68896484 C-69.35789648 223.09837438 -80.66662445 223.16504064 -92 223 C-93.12390137 222.98743164 -94.24780273 222.97486328 -95.40576172 222.96191406 C-98.87557053 222.9144289 -102.34347011 222.83678774 -105.8125 222.75 C-106.86743652 222.73598145 -107.92237305 222.72196289 -109.00927734 222.70751953 C-119.694183 222.36624096 -128.36843569 219.64005868 -136.125 212.1328125 C-144.71168757 202.36545538 -144.4528949 188.51702251 -145.4375 176.1875 C-146.29276308 165.65874127 -147.27681169 155.15057738 -148.37890625 144.64453125 C-149.54676308 133.50741094 -150.65559699 122.36627573 -151.71875 111.21875 C-151.79148195 110.45679636 -151.86421391 109.69484272 -151.93914986 108.90979958 C-152.53601774 102.65369378 -153.1300416 96.39731862 -153.72393799 90.14093018 C-154.16874194 85.45623599 -154.61432202 80.77161695 -155.0612793 76.08712769 C-155.20729594 74.55648517 -155.35313086 73.0258253 -155.4987793 71.49514771 C-156.26074781 63.49566218 -157.04183566 55.49900698 -157.88671875 47.5078125 C-157.95750389 46.83626884 -158.02828903 46.16472519 -158.10121918 45.47283173 C-158.43245283 42.33742009 -158.7684017 39.2026245 -159.1114502 36.06848145 C-159.68750038 30.67941419 -160.16022869 25.42041944 -160 20 C-158.989375 20.12375 -157.97875 20.2475 -156.9375 20.375 C-156.2053125 20.46394531 -155.473125 20.55289063 -154.71875 20.64453125 C-152.69457554 20.90918624 -150.67415918 21.20290321 -148.65625 21.51171875 C-121.98267944 25.46232111 -98.84310289 20.02749411 -74.25097656 9.92138672 C-47.26077856 -1.12644487 -47.26077856 -1.12644487 -37 -3 C-35.80375 -3.226875 -34.6075 -3.45375 -33.375 -3.6875 C-21.85983073 -4.75371938 -11.15586415 -2.84025913 0 0 Z " fill="#FEFEFD" transform="translate(332,224)"/>
<path d="M0 0 C2.83355099 0.14228301 5.66678787 0.28873416 8.5 0.4375 C9.29148438 0.47681641 10.08296875 0.51613281 10.8984375 0.55664062 C14.58547861 0.75308134 18.17876582 1.02491446 21.83984375 1.53515625 C27.23025493 2.25616238 32.63558396 2.06687512 38.0625 2 C51.18630119 1.83887291 51.18630119 1.83887291 57 3 C57.495 3.495 57.495 3.495 58 4 C60.37338639 4.15971977 62.72118272 4.2592433 65.09765625 4.31640625 C65.80651474 4.33718735 66.51537323 4.35796844 67.24571228 4.37937927 C69.51787305 4.44494598 71.79015264 4.5037923 74.0625 4.5625 C75.59962183 4.60567849 77.1367315 4.64929255 78.67382812 4.69335938 C82.4490959 4.80063449 86.2244836 4.90188137 90 5 C90 4.34 90 3.68 90 3 C100.56 3 111.12 3 122 3 C122 3.33 122 3.66 122 4 C81.39953757 7.70573465 40.320068 7.28691289 0 1 C0 0.67 0 0.34 0 0 Z " fill="#342E08" transform="translate(174,80)"/>
<path d="M0 0 C1.22397995 0.00045822 2.4479599 0.00091644 3.70903015 0.00138855 C6.2883705 0.0043979 8.86770925 0.01224449 11.44702148 0.0246582 C15.36383621 0.0428624 19.28041306 0.04516789 23.19726562 0.04492188 C25.71484576 0.04984022 28.23242432 0.05566991 30.75 0.0625 C31.90663651 0.06361282 33.06327301 0.06472565 34.25495911 0.06587219 C40.65943215 0.10264198 46.96870483 0.38816213 53.34353638 1.01495361 C59.07486578 1.46729045 64.83353402 1.22943393 70.57617188 1.10351562 C71.96932617 1.08708008 71.96932617 1.08708008 73.390625 1.0703125 C74.22021729 1.05347412 75.04980957 1.03663574 75.90454102 1.01928711 C78.07421875 1.23046875 78.07421875 1.23046875 81.07421875 3.23046875 C83.39530544 3.93859689 85.72799022 4.61071027 88.07421875 5.23046875 C84.23881206 6.59190318 81.02618717 5.95249742 77.0546875 5.36328125 C68.36008918 4.16294723 59.681663 3.63757218 50.91870117 3.22509766 C48.37833921 3.10507284 45.83862737 2.97509788 43.29882812 2.84375 C27.58922884 2.05286592 11.9777691 2.29009423 -3.73828125 2.73046875 C-5.50976124 2.77880691 -7.2812456 2.82698509 -9.05273438 2.875 C-13.34380255 2.99164871 -17.63480605 3.1104504 -21.92578125 3.23046875 C-21.92578125 2.90046875 -21.92578125 2.57046875 -21.92578125 2.23046875 C-14.51517996 0.25225031 -7.64841019 -0.047267 0 0 Z " fill="#393105" transform="translate(223.92578125,40.76953125)"/>
<path d="M0 0 C0.99713013 -0.00133942 1.99426025 -0.00267883 3.02160645 -0.00405884 C28.1607433 0.00319929 53.56336399 1.16108819 78.25 6.25 C78.25 6.58 78.25 6.91 78.25 7.25 C73.63 7.25 69.01 7.25 64.25 7.25 C64.25 6.59 64.25 5.93 64.25 5.25 C63.49074219 5.26160156 62.73148437 5.27320313 61.94921875 5.28515625 C60.95535156 5.29417969 59.96148437 5.30320312 58.9375 5.3125 C57.95136719 5.32410156 56.96523438 5.33570313 55.94921875 5.34765625 C53.25 5.25 53.25 5.25 50.25 4.25 C48.49896203 4.11273306 46.74377768 4.0253935 44.98828125 3.96875 C43.95123047 3.93136719 42.91417969 3.89398437 41.84570312 3.85546875 C40.76224609 3.82066406 39.67878906 3.78585938 38.5625 3.75 C36.43348387 3.68036531 34.30457025 3.60751298 32.17578125 3.53125 C31.23130127 3.50095703 30.28682129 3.47066406 29.3137207 3.43945312 C26.25 3.25 26.25 3.25 22.6940918 2.73852539 C16.88798841 1.98226084 11.0636612 2.12685693 5.21875 2.15234375 C3.98709106 2.1537587 2.75543213 2.15517365 1.4864502 2.15663147 C-2.42572516 2.16220388 -6.33784211 2.17475133 -10.25 2.1875 C-12.9114575 2.19308518 -15.57291444 2.19708084 -18.234375 2.20117188 C-24.73960307 2.21216428 -31.24479736 2.22887486 -37.75 2.25 C-37.75 1.92 -37.75 1.59 -37.75 1.25 C-25.16206967 0.28377186 -12.62191471 0.01009313 0 0 Z " fill="#403605" transform="translate(245.75,15.75)"/>
<path d="M0 0 C-5.61412245 5.61412245 -19.13533635 4.21456698 -26.8418293 4.23228264 C-29.22535598 4.22646661 -31.60870787 4.21110499 -33.9921875 4.1953125 C-35.67611521 4.19157167 -37.36004514 4.18872977 -39.04397583 4.18673706 C-43.42671972 4.17918473 -47.80932616 4.15961091 -52.1920166 4.1373291 C-56.68398175 4.11668719 -61.17596961 4.10769655 -65.66796875 4.09765625 C-74.44537482 4.07635505 -83.2226702 4.04232374 -92 4 C-92 3.34 -92 2.68 -92 2 C-94.97 1.505 -94.97 1.505 -98 1 C-95.55683576 0.1542893 -94.04131785 -0.00714136 -91.46875 0.4375 C-64.63296553 4.78924883 -32.29460222 4.3135845 -5.6015625 -0.44140625 C-2 -1 -2 -1 0 0 Z " fill="#352D03" transform="translate(301,457)"/>
<path d="M0 0 C0.53625 0.350625 1.0725 0.70125 1.625 1.0625 C4.73274763 2.28924249 6.79431703 1.72856431 10 1 C-3.5559589 11.96941961 -25.45083736 12.17858152 -42.1328125 12.09765625 C-43.25066132 12.0962413 -44.36851013 12.09482635 -45.52023315 12.09336853 C-49.05518383 12.08781622 -52.59006879 12.07527279 -56.125 12.0625 C-58.53645741 12.05747883 -60.94791583 12.05291701 -63.359375 12.04882812 C-69.23960537 12.03786246 -75.11979799 12.02117253 -81 12 C-81 11.67 -81 11.34 -81 11 C-65.16 11 -49.32 11 -33 11 C-33 10.34 -33 9.68 -33 9 C-32.42967041 8.97494385 -31.85934082 8.9498877 -31.27172852 8.92407227 C-28.70173843 8.80843451 -26.13214473 8.68556376 -23.5625 8.5625 C-22.66466797 8.52318359 -21.76683594 8.48386719 -20.84179688 8.44335938 C-19.56079102 8.38051758 -19.56079102 8.38051758 -18.25390625 8.31640625 C-17.46314697 8.27974854 -16.6723877 8.24309082 -15.85766602 8.20532227 C-13.98598559 8.19436743 -13.98598559 8.19436743 -13 7 C-10.66702567 6.95907063 -8.33294775 6.95758277 -6 7 C-6 6.01 -6 5.02 -6 4 C-5.34 4 -4.68 4 -4 4 C-4 3.34 -4 2.68 -4 2 C-2.68 2 -1.36 2 0 2 C0 1.34 0 0.68 0 0 Z " fill="#3F370A" transform="translate(313,472)"/>
<path d="M0 0 C8.31444118 0.38483406 16.62447047 0.78449208 24.91992188 1.4765625 C42.18063946 2.9117086 59.37290649 3.41529824 76.6875 3.625 C79.3587502 3.66242343 82.02995514 3.70238919 84.70117188 3.7421875 C91.13402015 3.83648666 97.56693488 3.92196573 104 4 C104 4.33 104 4.66 104 5 C78.59 5 53.18 5 27 5 C27 4.34 27 3.68 27 3 C25.081875 3.03480469 25.081875 3.03480469 23.125 3.0703125 C21.41667255 3.08908533 19.70833873 3.10728389 18 3.125 C17.16082031 3.14175781 16.32164062 3.15851563 15.45703125 3.17578125 C9.94745123 3.21849117 5.28951708 2.55502007 0 1 C0 0.67 0 0.34 0 0 Z " fill="#4E4309" transform="translate(168,104)"/>
<path d="M0 0 C1.010625 0.12375 2.02125 0.2475 3.0625 0.375 C3.7946875 0.46394531 4.526875 0.55289063 5.28125 0.64453125 C7.30542446 0.90918624 9.32584082 1.20290321 11.34375 1.51171875 C26.86660423 3.81079695 41.50409243 2.86818261 57 1 C56 3 56 3 54.12109375 3.6328125 C38.54903794 6.48882274 15.64265315 8.32132657 1 1 C1.31710938 1.64839844 1.63421875 2.29679688 1.9609375 2.96484375 C3.29576964 6.86395868 3.46064191 10.46770908 3.625 14.5625 C3.66294678 15.35446777 3.70089355 16.14643555 3.73999023 16.96240234 C4.02366486 23.30873773 4.1120971 29.64783093 4 36 C3.67 36 3.34 36 3 36 C2.56803948 31.99862104 2.14097604 27.99675135 1.71826172 23.99438477 C1.57406889 22.63552063 1.42858515 21.27679278 1.28173828 19.91821289 C1.06976773 17.95496187 0.86296696 15.99115489 0.65625 14.02734375 C0.53056641 12.84906006 0.40488281 11.67077637 0.27539062 10.45678711 C-0.00353806 6.95558925 -0.04704459 3.51070246 0 0 Z " fill="#FEFCC8" transform="translate(172,244)"/>
<path d="M0 0 C3.63 0.33 7.26 0.66 11 1 C11 1.66 11 2.32 11 3 C36.41 2.67 61.82 2.34 88 2 C88 2.33 88 2.66 88 3 C84.67723109 3.72726009 81.50212927 4.16575994 78.10546875 4.31640625 C77.16268066 4.35846191 76.21989258 4.40051758 75.24853516 4.44384766 C74.23839355 4.48300293 73.22825195 4.5221582 72.1875 4.5625 C71.1257959 4.6042334 70.0640918 4.6459668 68.97021484 4.68896484 C57.64317899 5.09833552 46.33243525 5.18032455 35 5 C33.2981958 4.97317139 33.2981958 4.97317139 31.56201172 4.94580078 C28.06136356 4.87955008 24.56231248 4.78826045 21.0625 4.6875 C19.4549585 4.65390381 19.4549585 4.65390381 17.81494141 4.61962891 C11.39262708 4.39551214 5.95840019 3.43816945 0 1 C0 0.67 0 0.34 0 0 Z " fill="#FEFDCA" transform="translate(205,442)"/>
<path d="M0 0 C0.64622314 0.07516846 1.29244629 0.15033691 1.95825195 0.2277832 C18.96650812 2.20388954 35.98047693 4.12346785 53 6 C53 6.33 53 6.66 53 7 C49.52085059 7.02887814 46.04173169 7.04675687 42.5625 7.0625 C41.07266602 7.07506836 41.07266602 7.07506836 39.55273438 7.08789062 C38.13637695 7.09272461 38.13637695 7.09272461 36.69140625 7.09765625 C35.37958374 7.10551147 35.37958374 7.10551147 34.04125977 7.11352539 C32 7 32 7 31 6 C27.68751443 5.93949798 24.38992624 5.97949773 21.078125 6.0390625 C15.55653595 6.09996238 11.63710823 6.09140549 7 3 C4.67891331 2.29187186 2.34622853 1.61975848 0 1 C0 0.67 0 0.34 0 0 Z " fill="#352E0E" transform="translate(129,160)"/>
<path d="M0 0 C0.33 0 0.66 0 1 0 C1 7.59 1 15.18 1 23 C0.34 23 -0.32 23 -1 23 C-0.98839844 24.27617187 -0.97679687 25.55234375 -0.96484375 26.8671875 C-0.95546583 28.53645687 -0.94636563 30.20572783 -0.9375 31.875 C-0.92912109 32.71675781 -0.92074219 33.55851562 -0.91210938 34.42578125 C-0.90888672 35.23144531 -0.90566406 36.03710938 -0.90234375 36.8671875 C-0.89710693 37.61081543 -0.89187012 38.35444336 -0.88647461 39.12060547 C-1 41 -1 41 -2 43 C-2.23172827 45.54615009 -2.41894529 48.07396225 -2.5625 50.625 C-2.60568359 51.33140625 -2.64886719 52.0378125 -2.69335938 52.765625 C-2.79944751 54.51018537 -2.90022889 56.25506697 -3 58 C-3.66 58 -4.32 58 -5 58 C-5.12584382 51.05027487 -4.64304997 44.31004696 -3.90625 37.40234375 C-3.79526978 36.32747208 -3.68428955 35.2526004 -3.56994629 34.14515686 C-3.21759579 30.74214146 -2.85890067 27.33983018 -2.5 23.9375 C-2.25869368 21.61788229 -2.01780403 19.29822119 -1.77734375 16.97851562 C-1.18971397 11.31849971 -0.59688615 5.65904685 0 0 Z " fill="#3C3307" transform="translate(344,241)"/>
<path d="M0 0 C0.33 0 0.66 0 1 0 C1.80787943 7.36190581 2.60814214 14.72459764 3.39872074 22.08838272 C3.76606616 25.50774615 4.13601837 28.92678529 4.51196289 32.34521484 C4.94415895 36.27619126 5.36495474 40.20834758 5.78515625 44.140625 C5.92156021 45.36678528 6.05796417 46.59294556 6.19850159 47.85626221 C6.31870163 48.99714294 6.43890167 50.13802368 6.56274414 51.31347656 C6.67155411 52.31719299 6.78036407 53.32090942 6.89247131 54.3550415 C6.99342117 56.83817595 6.75378692 58.64914626 6 61 C3.79050168 56.58970217 3.7629352 52.51059676 3.875 47.6875 C3.88402344 46.94693359 3.89304688 46.20636719 3.90234375 45.44335938 C3.92575787 43.62876533 3.96162385 41.81433929 4 40 C3.34 40 2.68 40 2 40 C1.93941406 38.74703125 1.87882813 37.4940625 1.81640625 36.203125 C1.73197744 34.55207276 1.64733061 32.90103165 1.5625 31.25 C1.52318359 30.425 1.48386719 29.6 1.44335938 28.75 C1.40146484 27.95078125 1.35957031 27.1515625 1.31640625 26.328125 C1.27974854 25.5949707 1.24309082 24.86181641 1.20532227 24.10644531 C1.05436049 21.99912105 1.05436049 21.99912105 0.48632812 20 C-0.04425089 17.81802045 -0.11367865 15.9150104 -0.09765625 13.671875 C-0.09282227 12.47304688 -0.09282227 12.47304688 -0.08789062 11.25 C-0.07951172 10.425 -0.07113281 9.6 -0.0625 8.75 C-0.05798828 7.90953125 -0.05347656 7.0690625 -0.04882812 6.203125 C-0.03707961 4.13538599 -0.01914522 2.06768376 0 0 Z " fill="#3E3505" transform="translate(163,288)"/>
<path d="M0 0 C10.56 0 21.12 0 32 0 C32 0.33 32 0.66 32 1 C8.64538294 3.13165093 -14.56702732 3.22513387 -38 3 C-38 2.67 -38 2.34 -38 2 C-25.46 2 -12.92 2 0 2 C0 1.34 0 0.68 0 0 Z " fill="#493E08" transform="translate(264,83)"/>
<path d="M0 0 C2 2 2 2 2 6 C2.66 6.33 3.32 6.66 4 7 C3.6875 9.375 3.6875 9.375 3 12 C-0.59474829 14.39649886 -3.69644455 14.59343785 -7.875 15 C-13.27210204 15.4693526 -13.27210204 15.4693526 -18.42504883 17.03662109 C-21.24327467 18.09101753 -23.09671501 18.15971074 -26.08203125 17.9765625 C-27.01337891 17.925 -27.94472656 17.8734375 -28.90429688 17.8203125 C-29.86400391 17.75585938 -30.82371094 17.69140625 -31.8125 17.625 C-33.28106445 17.53992188 -33.28106445 17.53992188 -34.77929688 17.453125 C-37.18699413 17.31218662 -39.59356337 17.16083172 -42 17 C-42 16.67 -42 16.34 -42 16 C-40.67778442 15.87939209 -40.67778442 15.87939209 -39.32885742 15.75634766 C-36.00539586 15.45082716 -32.68240354 15.14089303 -29.35961914 14.828125 C-27.9313939 14.69456499 -26.50301083 14.56268025 -25.07446289 14.43261719 C-16.62810615 13.66234263 -8.32738765 12.66692703 0 11 C0 7.37 0 3.74 0 0 Z " fill="#433908" transform="translate(349,90)"/>
<path d="M0 0 C1.05380859 -0.0009668 1.05380859 -0.0009668 2.12890625 -0.00195312 C8.38068536 0.0604512 14.38254064 0.8898571 20.5 2.1875 C20.5 2.5175 20.5 2.8475 20.5 3.1875 C15.64987841 3.28260042 11.26207809 3.13991562 6.5 2.1875 C0.56319934 1.77846846 -5.98377596 1.7206172 -11.5 4.1875 C-13.64665717 7.13984447 -13.64665717 7.13984447 -14.5 10.1875 C-14.83 9.5275 -15.16 8.8675 -15.5 8.1875 C-16.82 8.1875 -18.14 8.1875 -19.5 8.1875 C-19.5 8.8475 -19.5 9.5075 -19.5 10.1875 C-21.15 10.5175 -22.8 10.8475 -24.5 11.1875 C-20.93599872 5.7640198 -15.75138855 2.66265853 -9.6875 0.55859375 C-6.4641936 0.01178284 -3.25955653 -0.00308087 0 0 Z " fill="#3B340B" transform="translate(126.5,97.8125)"/>
<path d="M0 0 C6.92338952 -0.05063836 13.84673141 -0.08570749 20.77026367 -0.10986328 C23.12640162 -0.11993155 25.48252704 -0.13358706 27.83862305 -0.15087891 C31.22187386 -0.17509076 34.60495972 -0.18647478 37.98828125 -0.1953125 C39.57277824 -0.21079636 39.57277824 -0.21079636 41.18928528 -0.22659302 C42.17007553 -0.22674408 43.15086578 -0.22689514 44.16137695 -0.22705078 C45.45710381 -0.23371262 45.45710381 -0.23371262 46.77900696 -0.24050903 C49 0 49 0 52 2 C54.32108669 2.70812814 56.65377147 3.38024152 59 4 C55.17598218 5.35463802 51.99068039 4.72367351 48.03125 4.1328125 C38.21635112 2.77257541 28.39111798 2.32484665 18.5 1.875 C16.69398352 1.788319 14.88799362 1.70108242 13.08203125 1.61328125 C8.72163276 1.40247383 4.36094819 1.1990979 0 1 C0 0.67 0 0.34 0 0 Z " fill="#433707" transform="translate(253,42)"/>
<path d="M0 0 C13.2 0 26.4 0 40 0 C39.34 0.99 38.68 1.98 38 3 C35.15567988 3.19528111 32.54447488 3.20670097 29.7109375 3.07421875 C28.48330185 3.03455742 28.48330185 3.03455742 27.23086548 2.99409485 C24.61151418 2.90617713 21.99352575 2.79708482 19.375 2.6875 C17.60161166 2.62425713 15.82817367 2.56239055 14.0546875 2.50195312 C9.70238761 2.35061192 5.35119367 2.18027366 1 2 C0.67 1.34 0.34 0.68 0 0 Z " fill="#26230C" transform="translate(232,109)"/>
<path d="M0 0 C2 2 2 2 2.3125 5.8125 C2.20115097 9.661001 1.46324036 11.94218438 -1 15 C-4.68492725 18.42542533 -7.33895969 19.60671574 -12.3125 20.25 C-14.0140625 20.47042969 -14.0140625 20.47042969 -15.75 20.6953125 C-19.54514653 21.05110749 -23.19329535 21.14928254 -27 21 C-27 20.34 -27 19.68 -27 19 C-25.12054688 18.80083984 -25.12054688 18.80083984 -23.203125 18.59765625 C-21.55206754 18.41941709 -19.90102673 18.2410236 -18.25 18.0625 C-17.425 17.97548828 -16.6 17.88847656 -15.75 17.79882812 C-14.95078125 17.71181641 -14.1515625 17.62480469 -13.328125 17.53515625 C-12.5949707 17.456604 -11.86181641 17.37805176 -11.10644531 17.29711914 C-8.99386823 16.9991351 -7.02774685 16.66937747 -5 16 C-4.67 15.34 -4.34 14.68 -4 14 C-3.34 14 -2.68 14 -2 14 C-2.20625 13.21625 -2.4125 12.4325 -2.625 11.625 C-2.74875 10.75875 -2.8725 9.8925 -3 9 C-2.34 8.34 -1.68 7.68 -1 7 C-0.59952556 4.67724823 -0.2602896 2.34260643 0 0 Z " fill="#3C3205" transform="translate(323,62)"/>
<path d="M0 0 C1.375 2.1875 1.375 2.1875 2 4 C1.113125 3.484375 0.22625 2.96875 -0.6875 2.4375 C-4.20023331 0.9131063 -5.44706507 0.85052105 -9 2 C-8.34 1.67 -7.68 1.34 -7 1 C-7 0.34 -7 -0.32 -7 -1 C-8.61841797 -0.7834375 -8.61841797 -0.7834375 -10.26953125 -0.5625 C-21.56724016 0.86465936 -32.62058659 1.22708364 -44 1 C-44 0.67 -44 0.34 -44 0 C-39.71372553 -0.43165053 -35.42702672 -0.85873209 -31.13989258 -1.28173828 C-29.684041 -1.42601622 -28.22830867 -1.57150299 -26.77270508 -1.71826172 C-24.67039323 -1.93000536 -22.56767908 -2.13727771 -20.46484375 -2.34375 C-19.202771 -2.46943359 -17.94069824 -2.59511719 -16.64038086 -2.72460938 C-5.48069792 -3.56882655 -5.48069792 -3.56882655 0 0 Z " fill="#443A03" transform="translate(321,58)"/>
<path d="M0 0 C0.66 0.33 1.32 0.66 2 1 C1.88406494 2.00788574 1.76812988 3.01577148 1.64868164 4.05419922 C1.21369693 7.83748036 0.77968446 11.62087253 0.34594727 15.40429688 C0.15903296 17.03355851 -0.02813575 18.66279099 -0.21557617 20.29199219 C-1.20072973 28.85626041 -2.1765061 37.41832675 -3 46 C-3.33 46 -3.66 46 -4 46 C-4.02714434 43.2915983 -4.04690846 40.58347279 -4.0625 37.875 C-4.07087891 37.11445313 -4.07925781 36.35390625 -4.08789062 35.5703125 C-4.10655412 31.24038128 -3.7262387 27.27737437 -3 23 C-2.95737846 20.45869072 -2.95925707 17.91634009 -3 15.375 C-3.12627824 7.46682521 -3.12627824 7.46682521 -2 4 C-1.34 4 -0.68 4 0 4 C0 2.68 0 1.36 0 0 Z " fill="#3D3606" transform="translate(375,190)"/>
<path d="M0 0 C0.99 0 1.98 0 3 0 C3.33 1.32 3.66 2.64 4 4 C4.62648437 4.06058594 5.25296875 4.12117188 5.8984375 4.18359375 C6.71570313 4.26738281 7.53296875 4.35117187 8.375 4.4375 C9.59316406 4.55931641 9.59316406 4.55931641 10.8359375 4.68359375 C13 5 13 5 15 6 C18.35336366 6.23215595 21.69988023 6.39440527 25.05859375 6.51757812 C28.8178522 6.70104101 31.79562798 6.92806312 35 9 C27.09365948 9.45036117 19.51386837 8.68821701 11.6875 7.625 C10.74503418 7.49891357 9.80256836 7.37282715 8.83154297 7.24291992 C3.73071451 6.51894011 -1.08817135 5.5582353 -6 4 C-6 3.67 -6 3.34 -6 3 C-4.02 2.34 -2.04 1.68 0 1 C0 0.67 0 0.34 0 0 Z " fill="#413602" transform="translate(193,474)"/>
<path d="M0 0 C2.97 0.33 5.94 0.66 9 1 C9 1.33 9 1.66 9 2 C4.71446631 2.71929322 0.4277733 3.43109738 -3.86010742 4.13623047 C-5.31617081 4.37672869 -6.77190848 4.61920815 -8.22729492 4.86376953 C-10.32907238 5.21658589 -12.43194959 5.56206875 -14.53515625 5.90625 C-15.797229 6.11572266 -17.05930176 6.32519531 -18.35961914 6.54101562 C-21.94973058 6.99366196 -25.38586804 7.08144523 -29 7 C-28.360625 6.690625 -27.72125 6.38125 -27.0625 6.0625 C-25.06389179 5.1654837 -25.06389179 5.1654837 -24 4 C-21.51777659 3.71515469 -19.03531145 3.55193447 -16.54296875 3.37890625 C-14.00610582 3.14526845 -14.00610582 3.14526845 -12.00390625 1.94140625 C-9.3660586 0.70218347 -7.61477565 0.99805584 -4.75 1.375 C-3.85796875 1.48585938 -2.9659375 1.59671875 -2.046875 1.7109375 C-1.37140625 1.80632812 -0.6959375 1.90171875 0 2 C0 1.34 0 0.68 0 0 Z " fill="#3E3705" transform="translate(363,123)"/>
<path d="M0 0 C0 0.33 0 0.66 0 1 C-0.77819092 0.99419922 -1.55638184 0.98839844 -2.3581543 0.98242188 C-10.52281028 0.94837461 -18.65574077 1.15606827 -26.8125 1.5 C-27.99392578 1.54769531 -29.17535156 1.59539062 -30.39257812 1.64453125 C-33.2618223 1.76069498 -36.13094746 1.87921131 -39 2 C-28.36519682 -5.08986879 -11.79396115 -2.07041324 0 0 Z " fill="#FDFBCC" transform="translate(325,222)"/>
<path d="M0 0 C0.33 0 0.66 0 1 0 C1.08564209 0.65073486 1.17128418 1.30146973 1.25952148 1.97192383 C1.64914094 4.91919374 2.04326783 7.86584371 2.4375 10.8125 C2.57220703 11.83666016 2.70691406 12.86082031 2.84570312 13.91601562 C2.97783203 14.89892578 3.10996094 15.88183594 3.24609375 16.89453125 C3.42676392 18.25348511 3.42676392 18.25348511 3.61108398 19.63989258 C3.95962872 22.1418344 3.95962872 22.1418344 5 25 C5.14986411 26.9906444 5.24828038 28.98535391 5.31640625 30.98046875 C5.35830078 32.14384766 5.40019531 33.30722656 5.44335938 34.50585938 C5.48267578 35.72080078 5.52199219 36.93574219 5.5625 38.1875 C5.60568359 39.41404297 5.64886719 40.64058594 5.69335938 41.90429688 C5.7995309 44.93608381 5.90157952 47.96795315 6 51 C5.67 51 5.34 51 5 51 C4.44184216 46.46996153 3.89091874 41.93911446 3.34594727 37.4074707 C3.16063405 35.87436697 2.9735341 34.34147788 2.78442383 32.80883789 C1.43783532 21.88172101 0.52154476 10.99771588 0 0 Z " fill="#413804" transform="translate(148,391)"/>
<path d="M0 0 C0.33 0 0.66 0 1 0 C1 1.98 1 3.96 1 6 C2.32 5.67 3.64 5.34 5 5 C5.97040422 10.93024803 5.89316269 16.06390334 5 22 C-0.68630223 15.53829293 -0.26479234 8.13500898 0 0 Z " fill="#262319" transform="translate(90,146)"/>
<path d="M0 0 C0.33 0 0.66 0 1 0 C1.33 6.27 1.66 12.54 2 19 C2.66 19.33 3.32 19.66 4 20 C3.67 20.99 3.34 21.98 3 23 C1.68 23 0.36 23 -1 23 C-0.97679687 23.98742187 -0.95359375 24.97484375 -0.9296875 25.9921875 C-0.91164063 27.27351563 -0.89359375 28.55484375 -0.875 29.875 C-0.85179687 31.15117187 -0.82859375 32.42734375 -0.8046875 33.7421875 C-1 37 -1 37 -3 39 C-2.43869711 25.9423222 -1.41021227 12.9931208 0 0 Z " fill="#3C3308" transform="translate(348,201)"/>
<path d="M0 0 C0.66 0 1.32 0 2 0 C2.33 0.33 2.66 0.66 3 1 C3.66 0.67 4.32 0.34 5 0 C5.66 0.66 6.32 1.32 7 2 C6.67 2.33 6.34 2.66 6 3 C7.98 3 9.96 3 12 3 C11.67 3.99 11.34 4.98 11 6 C14.3 6 17.6 6 21 6 C21 6.66 21 7.32 21 8 C23.64 8 26.28 8 29 8 C29 8.66 29 9.32 29 10 C4.89994264 7.70187659 4.89994264 7.70187659 -1 1 C-0.67 0.67 -0.34 0.34 0 0 Z " fill="#3E3405" transform="translate(104,177)"/>
<path d="M0 0 C4.71038103 0.45292125 7.32413099 1.08465561 11 4 C12.32 4 13.64 4 15 4 C15.33 3.34 15.66 2.68 16 2 C16.99 2 17.98 2 19 2 C18.67 3.65 18.34 5.3 18 7 C21.465 8.485 21.465 8.485 25 10 C23 11 23 11 20.05859375 10.1796875 C13.02772078 7.64644956 6.37283508 4.96194774 0 1 C0 0.67 0 0.34 0 0 Z " fill="#362F0C" transform="translate(133,66)"/>
<path d="M0 0 C0.33 0 0.66 0 1 0 C1.17134793 7.37574956 0.51774854 14.49453718 -0.375 21.8125 C-0.50132812 22.93076172 -0.62765625 24.04902344 -0.7578125 25.20117188 C-0.88671875 26.27560547 -1.015625 27.35003906 -1.1484375 28.45703125 C-1.26364746 29.42616455 -1.37885742 30.39529785 -1.49755859 31.39379883 C-2 34 -2 34 -4 38 C-3.34 27.44 -2.68 16.88 -2 6 C-1.34 6 -0.68 6 0 6 C0 4.02 0 2.04 0 0 Z " fill="#3B3405" transform="translate(353,402)"/>
<path d="M0 0 C11.6985781 0.61571464 23.142221 4.72201066 33 11 C32.34 11.66 31.68 12.32 31 13 C31 12.34 31 11.68 31 11 C28.03 10.505 28.03 10.505 25 10 C25 9.34 25 8.68 25 8 C23.68 8 22.36 8 21 8 C21 7.34 21 6.68 21 6 C20.07316406 5.86722656 19.14632813 5.73445313 18.19140625 5.59765625 C16.99386719 5.42105469 15.79632813 5.24445312 14.5625 5.0625 C13.36753906 4.88847656 12.17257812 4.71445312 10.94140625 4.53515625 C8 4 8 4 7 3 C4.67182036 2.63239269 2.3381615 2.29758419 0 2 C0 1.34 0 0.68 0 0 Z " fill="#3D3307" transform="translate(324,23)"/>
<path d="M0 0 C0.33 0 0.66 0 1 0 C1.24851332 8.82337326 0.47132003 17.42374312 -0.5 26.1875 C-0.64506343 27.534448 -0.78959797 28.88145307 -0.93359375 30.22851562 C-1.28389034 33.4862739 -1.6394653 36.74336164 -2 40 C-2.33 40 -2.66 40 -3 40 C-3.23567307 26.64519276 -3.15332774 13.03375465 0 0 Z " fill="#3E3604" transform="translate(367,264)"/>
<path d="M0 0 C0.57540527 0.06566162 1.15081055 0.13132324 1.74365234 0.19897461 C8.69869831 0.94843484 15.63627546 1.3035011 22.625 1.5625 C23.72457031 1.60568359 24.82414062 1.64886719 25.95703125 1.69335938 C28.63792882 1.79826406 31.31890001 1.90042726 34 2 C34 2.33 34 2.66 34 3 C24.62895894 3.88495497 15.40228594 4.1170409 6 4 C6 3.34 6 2.68 6 2 C3.03 1.505 3.03 1.505 0 1 C0 0.67 0 0.34 0 0 Z " fill="#4E4207" transform="translate(203,457)"/>
<path d="M0 0 C0.33 0 0.66 0 1 0 C0.90598939 4.30538036 0.79979374 8.61024144 0.68261719 12.91503906 C0.64448794 14.37752189 0.60960786 15.84009338 0.578125 17.30273438 C0.53212289 19.41308132 0.47419059 21.52282634 0.4140625 23.6328125 C0.3826416 24.90012207 0.3512207 26.16743164 0.31884766 27.47314453 C0.00492436 30.94553039 -0.75562599 33.75589514 -2 37 C-2.33 37 -2.66 37 -3 37 C-2.43732224 24.60628192 -1.40751879 12.32603834 0 0 Z " fill="#403805" transform="translate(335,329)"/>
<path d="M0 0 C0.33 0 0.66 0 1 0 C1.04898438 0.68707031 1.09796875 1.37414062 1.1484375 2.08203125 C1.22320312 2.98308594 1.29796875 3.88414062 1.375 4.8125 C1.44460937 5.70582031 1.51421875 6.59914062 1.5859375 7.51953125 C1.86645036 10.24398499 1.86645036 10.24398499 4 13 C4.13525391 15.17651367 4.13525391 15.17651367 3.9765625 17.66796875 C3.925 18.56064453 3.8734375 19.45332031 3.8203125 20.37304688 C3.75585938 21.30181641 3.69140625 22.23058594 3.625 23.1875 C3.56828125 24.12787109 3.5115625 25.06824219 3.453125 26.03710938 C3.31169923 28.35884909 3.1602967 30.6794993 3 33 C2.67 33 2.34 33 2 33 C0.76776094 21.96485916 -0.36520833 11.11856481 0 0 Z " fill="#393207" transform="translate(130,211)"/>
<path d="M0 0 C0.99 0.33 1.98 0.66 3 1 C4.1577506 4.47325181 4.06866652 7.36067448 4 11 C4.66 11 5.32 11 6 11 C6.08121924 12.60332791 6.13929134 14.20784026 6.1875 15.8125 C6.22230469 16.70582031 6.25710938 17.59914062 6.29296875 18.51953125 C5.95081002 21.41647515 5.24606427 22.22555028 3 24 C3.04125 22.741875 3.0825 21.48375 3.125 20.1875 C3.13588912 13.30557898 1.71825379 6.6408187 0 0 Z " fill="#37320F" transform="translate(383,129)"/>
<path d="M0 0 C-0.99 0 -1.98 0 -3 0 C-3 0.66 -3 1.32 -3 2 C-5.64 2 -8.28 2 -11 2 C-11 2.66 -11 3.32 -11 4 C-12.32 4 -13.64 4 -15 4 C-15 4.66 -15 5.32 -15 6 C-15.99 6 -16.98 6 -18 6 C-18.33 6.66 -18.66 7.32 -19 8 C-19 7.34 -19 6.68 -19 6 C-20.98 6 -22.96 6 -25 6 C-21.6875781 3.79171873 -18.89169865 2.99424632 -15.0625 1.9375 C-13.22365234 1.42509766 -13.22365234 1.42509766 -11.34765625 0.90234375 C-10.24292969 0.60457031 -9.13820312 0.30679687 -8 0 C-7.24074219 -0.21398437 -6.48148438 -0.42796875 -5.69921875 -0.6484375 C-3.55337857 -1.09240443 -2.06326035 -0.66319083 0 0 Z " fill="#37300A" transform="translate(171,23)"/>
<path d="M0 0 C9.9 0.99 19.8 1.98 30 3 C30 3.33 30 3.66 30 4 C26.52085059 4.02887814 23.04173169 4.04675687 19.5625 4.0625 C18.56927734 4.07087891 17.57605469 4.07925781 16.55273438 4.08789062 C15.60849609 4.09111328 14.66425781 4.09433594 13.69140625 4.09765625 C12.37958374 4.10551147 12.37958374 4.10551147 11.04125977 4.11352539 C9 4 9 4 8 3 C6.65252916 2.76924918 5.29622435 2.58846937 3.9375 2.4375 C2.638125 2.293125 1.33875 2.14875 0 2 C0 1.34 0 0.68 0 0 Z " fill="#3F3706" transform="translate(152,163)"/>
<path d="M0 0 C0 0.99 0 1.98 0 3 C0.61488281 3.12117188 1.22976563 3.24234375 1.86328125 3.3671875 C2.67152344 3.53476562 3.47976563 3.70234375 4.3125 3.875 C5.11300781 4.03742187 5.91351563 4.19984375 6.73828125 4.3671875 C9 5 9 5 12 7 C5.41727705 6.60146354 -0.97665028 5.86760841 -7 3 C-7.33 2.34 -7.66 1.68 -8 1 C-4.93251126 -0.86240388 -3.40254489 -1.2151946 0 0 Z " fill="#2E2A0D" transform="translate(317,43)"/>
<path d="M0 0 C0.33 0 0.66 0 1 0 C1.32001346 9.76041066 0.11306313 19.32032595 -1 29 C-1.33 29 -1.66 29 -2 29 C-2 22.07 -2 15.14 -2 8 C-1.34 8 -0.68 8 0 8 C0 5.36 0 2.72 0 0 Z " fill="#3D3506" transform="translate(363,304)"/>
<path d="M0 0 C2.23405028 3.74618038 2.90962217 7.76957079 3.6875 12 C3.82994141 12.7115625 3.97238281 13.423125 4.11914062 14.15625 C4.78104921 17.68642913 5.32378445 20.58836758 4 24 C3.34 23.67 2.68 23.34 2 23 C1.62109375 20.34765625 1.62109375 20.34765625 1.4375 17.0625 C1.30484497 12.87751203 1.30484497 12.87751203 0 9 C-0.06950541 7.45976004 -0.08452357 5.91665012 -0.0625 4.375 C-0.05347656 3.55773438 -0.04445313 2.74046875 -0.03515625 1.8984375 C-0.02355469 1.27195313 -0.01195312 0.64546875 0 0 Z " fill="#3B3406" transform="translate(367,49)"/>
<path d="M0 0 C3.01007252 2.18914365 3.65045116 5.12336146 5.0625 8.5 C6.0525 8.83 7.0425 9.16 8.0625 9.5 C8.0625 10.49 8.0625 11.48 8.0625 12.5 C4.93392986 11.1118265 2.78060826 9.48898122 0.375 7.0625 C-0.22699219 6.46566406 -0.82898438 5.86882812 -1.44921875 5.25390625 C-2.9375 3.5 -2.9375 3.5 -3.9375 0.5 C-1.9375 -0.5 -1.9375 -0.5 0 0 Z " fill="#312A0E" transform="translate(163.9375,456.5)"/>
<path d="M0 0 C-1.16723633 1.49536133 -1.16723633 1.49536133 -3 3 C-5.4519043 3.2487793 -5.4519043 3.2487793 -8.32421875 3.07421875 C-9.35224609 3.01943359 -10.38027344 2.96464844 -11.43945312 2.90820312 C-13.04723633 2.79895508 -13.04723633 2.79895508 -14.6875 2.6875 C-15.77095703 2.62626953 -16.85441406 2.56503906 -17.97070312 2.50195312 C-20.64828378 2.3486115 -23.32415282 2.18075343 -26 2 C-26 1.67 -26 1.34 -26 1 C-17.31008699 0.20354316 -8.72542301 -0.12852505 0 0 Z " fill="#3B3107" transform="translate(333,105)"/>
<path d="M0 0 C0.99 0.495 0.99 0.495 2 1 C2.33 1.99 2.66 2.98 3 4 C3.66 4.33 4.32 4.66 5 5 C4.98839844 5.60585937 4.97679687 6.21171875 4.96484375 6.8359375 C4.89890039 12.95924948 5.27568567 18.92093331 6 25 C5.67 25 5.34 25 5 25 C3.35 16.75 1.7 8.5 0 0 Z " fill="#3D3307" transform="translate(343,63)"/>
<path d="M0 0 C2 2 2 2 2.3125 5.8125 C2.21583029 9.61023865 1.455879 11.99837011 -1 15 C-1.99 15.33 -2.98 15.66 -4 16 C-4 15.34 -4 14.68 -4 14 C-3.34 14 -2.68 14 -2 14 C-2.20625 13.21625 -2.4125 12.4325 -2.625 11.625 C-2.74875 10.75875 -2.8725 9.8925 -3 9 C-2.34 8.34 -1.68 7.68 -1 7 C-0.59952556 4.67724823 -0.2602896 2.34260643 0 0 Z " fill="#332B0C" transform="translate(323,62)"/>
<path d="M0 0 C0.103125 0.78375 0.20625 1.5675 0.3125 2.375 C0.77595022 5.33045181 0.77595022 5.33045181 4 7 C4.1875 9.625 4.1875 9.625 4 12 C3.4225 11.236875 2.845 10.47375 2.25 9.6875 C-1.41525328 5.30955859 -4.52416803 3.61785944 -10 2 C-10 1.67 -10 1.34 -10 1 C-6.56484998 0.37542727 -3.50935186 0 0 0 Z " fill="#3B330C" transform="translate(339,49)"/>
<path d="M0 0 C0.33 0 0.66 0 1 0 C1.66 7.59 2.32 15.18 3 23 C2.01 22.67 1.02 22.34 0 22 C0 14.74 0 7.48 0 0 Z " fill="#403807" transform="translate(157,230)"/>
<path d="M0 0 C2.97 0.33 5.94 0.66 9 1 C9 1.33 9 1.66 9 2 C-2.385 2.99 -2.385 2.99 -14 4 C-13.67 3.34 -13.34 2.68 -13 2 C-8.37072828 1.00152963 -4.61588935 0.986756 0 2 C0 1.34 0 0.68 0 0 Z " fill="#352E0E" transform="translate(363,123)"/>
<path d="M0 0 C0.99 0 1.98 0 3 0 C3.33 1.32 3.66 2.64 4 4 C6.97 4.33 9.94 4.66 13 5 C13 5.33 13 5.66 13 6 C6.29481414 6.19818283 0.34823202 6.30844801 -6 4 C-6 3.67 -6 3.34 -6 3 C-4.02 2.34 -2.04 1.68 0 1 C0 0.67 0 0.34 0 0 Z " fill="#342E0E" transform="translate(193,474)"/>
<path d="M0 0 C0.33 0 0.66 0 1 0 C1 3.3 1 6.6 1 10 C1.66 10 2.32 10 3 10 C2.67 8.68 2.34 7.36 2 6 C3.65 6 5.3 6 7 6 C6.67 6.66 6.34 7.32 6 8 C5.34 8 4.68 8 4 8 C3.67 10.97 3.34 13.94 3 17 C0.41451372 14.41451372 0.02358153 12.70461615 -0.09765625 9.08203125 C-0.08605469 8.00308594 -0.07445312 6.92414063 -0.0625 5.8125 C-0.05347656 4.72582031 -0.04445312 3.63914062 -0.03515625 2.51953125 C-0.02355469 1.68808594 -0.01195312 0.85664063 0 0 Z " fill="#2F2911" transform="translate(154,434)"/>
<path d="M0 0 C0.66 0 1.32 0 2 0 C2.33 0.33 2.66 0.66 3 1 C3.66 0.67 4.32 0.34 5 0 C5.66 0.66 6.32 1.32 7 2 C6.67 2.33 6.34 2.66 6 3 C7.98 3 9.96 3 12 3 C11.67 3.99 11.34 4.98 11 6 C5.71201818 5.58525633 2.88309282 4.64775386 -1 1 C-0.67 0.67 -0.34 0.34 0 0 Z " fill="#332C0E" transform="translate(104,177)"/>
<path d="M0 0 C0.33 0.99 0.66 1.98 1 3 C0.33333333 4.33333333 -0.33333333 5.66666667 -1 7 C-1.28480806 9.0742625 -1.48874224 11.16071439 -1.625 13.25 C-1.69976562 14.32765625 -1.77453125 15.4053125 -1.8515625 16.515625 C-1.90054688 17.33546875 -1.94953125 18.1553125 -2 19 C-4.51675702 15.22486447 -4.36808778 13.4906709 -4 9 C-1.94486216 1.94486216 -1.94486216 1.94486216 0 0 Z " fill="#403505" transform="translate(129,39)"/>
<path d="M0 0 C0.99 0 1.98 0 3 0 C2.52412884 6.02770138 -0.19722957 10.76678289 -3 16 C-3.66 14.68 -4.32 13.36 -5 12 C-4.01 11.67 -3.02 11.34 -2 11 C-2 9.02 -2 7.04 -2 5 C-1.01 5 -0.02 5 1 5 C0.67 3.35 0.34 1.7 0 0 Z " fill="#342F0C" transform="translate(346,440)"/>
<path d="M0 0 C2.54452069 3.03055273 3.7239002 5.68877218 4.75 9.5 C5.01296875 10.4384375 5.2759375 11.376875 5.546875 12.34375 C5.99880083 14.99297037 5.875264 16.49248692 5 19 C3.19769832 15.17010894 2.80377759 12.21878192 3 8 C2.01 8 1.02 8 0 8 C0 5.36 0 2.72 0 0 Z " fill="#403606" transform="translate(404,114)"/>
<path d="M0 0 C0.33 0 0.66 0 1 0 C1 1.98 1 3.96 1 6 C1.66 6 2.32 6 3 6 C3 9.96 3 13.92 3 18 C0.03875445 15.03875445 0.04042342 12.1981502 -0.09765625 8.10546875 C-0.08605469 7.14253906 -0.07445313 6.17960938 -0.0625 5.1875 C-0.05347656 4.21167969 -0.04445313 3.23585937 -0.03515625 2.23046875 C-0.02355469 1.49441406 -0.01195313 0.75835937 0 0 Z " fill="#3D350A" transform="translate(90,146)"/>
<path d="M0 0 C2.97 0 5.94 0 9 0 C5.292996 3.2436285 0.02493834 6 -5 6 C-5 5.34 -5 4.68 -5 4 C-3.68 4 -2.36 4 -1 4 C-0.67 2.68 -0.34 1.36 0 0 Z " fill="#39320A" transform="translate(391,179)"/>
<path d="M0 0 C1.8871875 0.0309375 1.8871875 0.0309375 3.8125 0.0625 C3.8125 0.3925 3.8125 0.7225 3.8125 1.0625 C1.5025 1.0625 -0.8075 1.0625 -3.1875 1.0625 C-3.1875 1.7225 -3.1875 2.3825 -3.1875 3.0625 C-4.8375 3.3925 -6.4875 3.7225 -8.1875 4.0625 C-8.1875 4.7225 -8.1875 5.3825 -8.1875 6.0625 C-10.1675 7.0525 -10.1675 7.0525 -12.1875 8.0625 C-10.89739008 5.18456249 -9.61388194 3.10066083 -7.1875 1.0625 C-4.43671116 0.14557039 -2.82801087 -0.04636083 0 0 Z " fill="#403507" transform="translate(143.1875,202.9375)"/>
<path d="M0 0 C0.33 0 0.66 0 1 0 C2.32 6.27 3.64 12.54 5 19 C4.34 19 3.68 19 3 19 C0.51955685 15.27933528 0.55618827 12.13459526 0.375 7.8125 C0.33632813 7.06291016 0.29765625 6.31332031 0.2578125 5.54101562 C0.16371784 3.69440801 0.08077681 1.8472381 0 0 Z " fill="#413606" transform="translate(372,76)"/>
<path d="M0 0 C0.33 0.99 0.66 1.98 1 3 C0.01 3.33 -0.98 3.66 -2 4 C-2 4.66 -2 5.32 -2 6 C-5.41831915 8.5393228 -7.75776898 9.3636198 -12 9 C-12 8.34 -12 7.68 -12 7 C-10.72942818 6.52014033 -9.45853152 6.0411407 -8.1875 5.5625 C-7.47980469 5.29566406 -6.77210938 5.02882812 -6.04296875 4.75390625 C-4.37327604 4.13774814 -2.68842296 3.56280765 -1 3 C-0.67 2.01 -0.34 1.02 0 0 Z " fill="#3F350A" transform="translate(385,153)"/>
<path d="M0 0 C1.1055189 0.93590504 2.20935453 1.87379858 3.3125 2.8125 C3.92738281 3.33457031 4.54226562 3.85664063 5.17578125 4.39453125 C6.85424679 5.87172469 8.43882034 7.40039131 10 9 C9.21625 8.979375 8.4325 8.95875 7.625 8.9375 C5.01885039 8.81315937 5.01885039 8.81315937 3 10 C2.87625 9.278125 2.7525 8.55625 2.625 7.8125 C2.0095069 5.04278106 1.11555626 2.6029646 0 0 Z " fill="#362D0B" transform="translate(184,444)"/>
<path d="M0 0 C2 2 2 2 2.1953125 4.3828125 C2.17210937 5.28773437 2.14890625 6.19265625 2.125 7.125 C2.10695313 8.03507812 2.08890625 8.94515625 2.0703125 9.8828125 C2.04710937 10.58148438 2.02390625 11.28015625 2 12 C0.68 11.67 -0.64 11.34 -2 11 C-1.67 9.9275 -1.34 8.855 -1 7.75 C0.1717751 4.00268399 0.1717751 4.00268399 0 0 Z " fill="#2F2918" transform="translate(365,44)"/>
<path d="M0 0 C2.18975773 3.28463659 2.99806563 6.20696275 4 10 C3.01 10 2.02 10 1 10 C1 9.34 1 8.68 1 8 C0.34 8 -0.32 8 -1 8 C-0.67 5.36 -0.34 2.72 0 0 Z " fill="#37320C" transform="translate(179,432)"/>
<path d="M0 0 C1.2380014 3.57644848 0.74926071 6.33694766 0 10 C-1.32 9.67 -2.64 9.34 -4 9 C-2.80100302 5.9168649 -1.52299523 2.93720508 0 0 Z " fill="#36300A" transform="translate(323,438)"/>
<path d="M0 0 C0.33 0 0.66 0 1 0 C1.24887295 2.10192697 1.4734719 4.20673964 1.6875 6.3125 C1.81511719 7.48425781 1.94273437 8.65601563 2.07421875 9.86328125 C2 13 2 13 -1 16 C-0.67 10.72 -0.34 5.44 0 0 Z " fill="#262411" transform="translate(336,328)"/>
<path d="M0 0 C0.99 0.33 1.98 0.66 3 1 C4.04976964 4.14930893 4.10131595 6.38814456 4.0625 9.6875 C4.05347656 10.68136719 4.04445313 11.67523438 4.03515625 12.69921875 C4.02355469 13.45847656 4.01195312 14.21773437 4 15 C3.67 15 3.34 15 3 15 C2.86722656 14.25234375 2.73445313 13.5046875 2.59765625 12.734375 C2.42105469 11.74953125 2.24445313 10.7646875 2.0625 9.75 C1.88847656 8.77546875 1.71445312 7.8009375 1.53515625 6.796875 C1.09620271 4.50278205 0.59651408 2.25708029 0 0 Z " fill="#473A09" transform="translate(383,129)"/>
<path d="M0 0 C5.53846154 -0.36923077 5.53846154 -0.36923077 7.875 1.5 C8.24625 1.995 8.6175 2.49 9 3 C8.67 3.66 8.34 4.32 8 5 C7.278125 4.484375 6.55625 3.96875 5.8125 3.4375 C2.5804634 1.78557018 1.38391693 1.93648325 -2 3 C-1.34 2.67 -0.68 2.34 0 2 C0 1.34 0 0.68 0 0 Z " fill="#352E11" transform="translate(314,57)"/>
<path d="M0 0 C0 0.66 0 1.32 0 2 C-1.32 2 -2.64 2 -4 2 C-4 2.66 -4 3.32 -4 4 C-6.97 4 -9.94 4 -13 4 C-8.9083869 1.95419345 -4.65704046 0 0 0 Z " fill="#FEFCD0" transform="translate(242,241)"/>
<path d="M0 0 C0 0.66 0 1.32 0 2 C-0.99 2.495 -0.99 2.495 -2 3 C-1.67 3.66 -1.34 4.32 -1 5 C-3.64 5.33 -6.28 5.66 -9 6 C-3.15384615 0 -3.15384615 0 0 0 Z " fill="#3A340F" transform="translate(141,31)"/>
<path d="M0 0 C2.64 0 5.28 0 8 0 C6.37660195 1.70884005 4.70680947 3.37446717 3 5 C2.34 5 1.68 5 1 5 C0.67 3.35 0.34 1.7 0 0 Z " fill="#383110" transform="translate(322,468)"/>
<path d="M0 0 C1.98 0 3.96 0 6 0 C4.35830472 2.02054804 2.69088222 4.02043058 1 6 C0.67 6 0.34 6 0 6 C0 4.02 0 2.04 0 0 Z " fill="#383110" transform="translate(331,462)"/>
<path d="M0 0 C1.62418745 -0.08090971 3.24951745 -0.13914995 4.875 -0.1875 C5.77992188 -0.22230469 6.68484375 -0.25710937 7.6171875 -0.29296875 C8.79667969 -0.14794922 8.79667969 -0.14794922 10 0 C10.66 0.99 11.32 1.98 12 3 C3.96428571 2.19642857 3.96428571 2.19642857 0 0 Z " fill="#393508" transform="translate(160,77)"/>
<path d="M0 0 C0.33 1.32 0.66 2.64 1 4 C-3.625 6.125 -3.625 6.125 -7 5 C-4.69 3.35 -2.38 1.7 0 0 Z " fill="#3D310D" transform="translate(318,447)"/>
<path d="M0 0 C0.66 0.33 1.32 0.66 2 1 C1.525625 1.886875 1.05125 2.77375 0.5625 3.6875 C-0.79737149 6.57042756 -1.54060386 8.87610623 -2 12 C-2.33 12 -2.66 12 -3 12 C-3 10.35 -3 8.7 -3 7 C-3.66 6.67 -4.32 6.34 -5 6 C-4.34 6 -3.68 6 -3 6 C-3 5.34 -3 4.68 -3 4 C-2.34 3.67 -1.68 3.34 -1 3 C-0.67 2.01 -0.34 1.02 0 0 Z " fill="#2D2810" transform="translate(118,129)"/>
<path d="M0 0 C0.66 0.33 1.32 0.66 2 1 C2 1.66 2 2.32 2 3 C2.99 3.33 3.98 3.66 5 4 C1.67465243 5.10844919 -0.62182575 4.84454356 -4 4 C-3.67 3.34 -3.34 2.68 -3 2 C-2.01 2 -1.02 2 0 2 C0 1.34 0 0.68 0 0 Z " fill="#3F340E" transform="translate(377,121)"/>
<path d="M0 0 C3.71368887 1.23789629 4.77354181 2.85224877 7 6 C7 6.66 7 7.32 7 8 C6.01 8 5.02 8 4 8 C4 7.01 4 6.02 4 5 C3.34 5 2.68 5 2 5 C1.34 3.35 0.68 1.7 0 0 Z " fill="#382F0C" transform="translate(397,106)"/>
<path d="M0 0 C1.32 0 2.64 0 4 0 C3.625 2.4375 3.625 2.4375 3 5 C2.01 5.495 2.01 5.495 1 6 C0.67 4.02 0.34 2.04 0 0 Z " fill="#2B2517" transform="translate(338,453)"/>
<path d="M0 0 C2.5 1.375 2.5 1.375 5 3 C5 3.66 5 4.32 5 5 C4.01 5.33 3.02 5.66 2 6 C0 2.25 0 2.25 0 0 Z " fill="#3A3209" transform="translate(149,205)"/>
<path d="M0 0 C0.99 0.33 1.98 0.66 3 1 C3 1.99 3 2.98 3 4 C3.66 4 4.32 4 5 4 C5.33 5.32 5.66 6.64 6 8 C1.2 4.55384615 1.2 4.55384615 0.1875 1.75 C0.125625 1.1725 0.06375 0.595 0 0 Z " fill="#413308" transform="translate(127,58)"/>
</svg>
